<svg xmlns="http://www.w3.org/2000/svg" xmlns:xlink="http://www.w3.org/1999/xlink" width="128.947" height="128.949"><defs><linearGradient id="a" x1=".5" y1="-1.685" x2=".5" y2="1" gradientUnits="objectBoundingBox"><stop offset="0" stop-color="#f47a1b"/><stop offset="1" stop-color="#ef2d2d"/></linearGradient><linearGradient id="d" x1=".581" y1="0" xlink:href="#a"/><filter id="b" x="20.865" y="44.885" width="94.178" height="44.176" filterUnits="userSpaceOnUse"><feOffset dy="3"/><feGaussianBlur stdDeviation="3" result="c"/><feFlood/><feComposite operator="in" in2="c"/><feComposite in="SourceGraphic"/></filter><filter id="f" x="20.865" y="44.885" width="94.178" height="44.176" filterUnits="userSpaceOnUse"><feOffset dy="3"/><feGaussianBlur stdDeviation="3" result="g"/><feFlood/><feComposite operator="in" in2="g"/><feComposite in="SourceGraphic"/></filter><style>.a{fill:url(#a)}</style></defs><g transform="translate(.004 .004)" filter="url(#b)"><path class="a" d="M29.899 71.242h12.316v5.438h5.544v-5.438h3.86v-4.246h-3.86v-15.72h-4.948l-12.948 19.9zm7.684-4.246l-.035-.07 2.491-3.825a118.825 118.825 0 002.281-3.649l.07.035a134.4 134.4 0 00-.07 3.825v3.684zm26.282 10.07a8.486 8.486 0 007.018-3.438c1.579-2.176 2.316-5.193 2.316-9.649s-.737-7.474-2.316-9.649a8.486 8.486 0 00-7.018-3.44 8.532 8.532 0 00-7.018 3.439c-1.579 2.175-2.317 5.191-2.317 9.649s.737 7.474 2.316 9.649a8.532 8.532 0 007.019 3.439zm0-4.983a3.148 3.148 0 01-2.561-1.363c-.842-1.193-1.193-3.228-1.193-6.7 0-3.263.316-5.509 1.193-6.772a3.06 3.06 0 012.561-1.368 3.014 3.014 0 012.565 1.361c.912 1.3 1.193 3.509 1.193 6.7-.003 3.579-.354 5.579-1.193 6.779a3.1 3.1 0 01-2.565 1.364zm18.843-8.07c3.895 0 6.316-2.807 6.316-6.562s-2.421-6.562-6.316-6.562-6.316 2.807-6.316 6.562 2.421 6.562 6.316 6.562zM81.13 76.68h3.579l16.6-25.4H97.73zm1.579-15.93c-1.649 0-2.7-1.474-2.7-3.3s1.053-3.3 2.7-3.3 2.7 1.474 2.7 3.3-1.052 3.3-2.701 3.3zm10.7 9.755c0 3.755 2.421 6.562 6.316 6.562s6.316-2.807 6.316-6.562-2.421-6.562-6.316-6.562-6.315 2.807-6.315 6.562zm3.614 0c0-1.825 1.053-3.3 2.7-3.3s2.7 1.474 2.7 3.3-1.053 3.3-2.7 3.3-2.699-1.476-2.699-3.3z"/></g><path d="M64.427 0c-.25 0-.5.007-.747.01v5.074c.249 0 .5-.009.747-.009a59.4 59.4 0 11-37.921 105.109l-3.6 3.6A64.481 64.481 0 1064.428.003z" fill="#fff"/><path d="M492.638 608.208c.25 0 .5.007.747.01v5.074c-.249 0-.5-.009-.747-.009a59.4 59.4 0 1037.922 105.108l3.6 3.6a64.481 64.481 0 11-41.522-113.781z" transform="translate(-428.118 -608.208)" fill="url(#d)"/><g transform="translate(.004 .004)" filter="url(#f)"><path class="a" d="M29.899 71.242h12.316v5.438h5.544v-5.438h3.86v-4.246h-3.86v-15.72h-4.948l-12.948 19.9zm7.684-4.246l-.035-.07 2.491-3.825a118.825 118.825 0 002.281-3.649l.07.035a134.4 134.4 0 00-.07 3.825v3.684zm26.282 10.07a8.486 8.486 0 007.018-3.438c1.579-2.176 2.316-5.193 2.316-9.649s-.737-7.474-2.316-9.649a8.486 8.486 0 00-7.018-3.44 8.532 8.532 0 00-7.018 3.439c-1.579 2.175-2.317 5.191-2.317 9.649s.737 7.474 2.316 9.649a8.532 8.532 0 007.019 3.439zm0-4.983a3.148 3.148 0 01-2.561-1.363c-.842-1.193-1.193-3.228-1.193-6.7 0-3.263.316-5.509 1.193-6.772a3.06 3.06 0 012.561-1.368 3.014 3.014 0 012.565 1.361c.912 1.3 1.193 3.509 1.193 6.7-.003 3.579-.354 5.579-1.193 6.779a3.1 3.1 0 01-2.565 1.364zm18.843-8.07c3.895 0 6.316-2.807 6.316-6.562s-2.421-6.562-6.316-6.562-6.316 2.807-6.316 6.562 2.421 6.562 6.316 6.562zM81.13 76.68h3.579l16.6-25.4H97.73zm1.579-15.93c-1.649 0-2.7-1.474-2.7-3.3s1.053-3.3 2.7-3.3 2.7 1.474 2.7 3.3-1.052 3.3-2.701 3.3zm10.7 9.755c0 3.755 2.421 6.562 6.316 6.562s6.316-2.807 6.316-6.562-2.421-6.562-6.316-6.562-6.315 2.807-6.315 6.562zm3.614 0c0-1.825 1.053-3.3 2.7-3.3s2.7 1.474 2.7 3.3-1.053 3.3-2.7 3.3-2.699-1.476-2.699-3.3z"/></g></svg>