<svg xmlns="http://www.w3.org/2000/svg" xmlns:xlink="http://www.w3.org/1999/xlink" width="128.947" height="128.949"><defs><linearGradient id="a" x1=".5" y1="-1.685" x2=".5" y2="1" gradientUnits="objectBoundingBox"><stop offset="0" stop-color="#f47a1b"/><stop offset="1" stop-color="#ef2d2d"/></linearGradient><linearGradient id="b" x1="1.15" y1=".277" x2="-.067" y2=".571" xlink:href="#a"/></defs><path d="M-40.033-1.16l.037.073h18.808v-5.077h-8.254l-.037-.073 3.177-4.2c2.739-3.652 4.163-6.391 4.163-9.349 0-4.967-4.054-8.144-9.276-8.144a11.381 11.381 0 00-6.72 2.118v5.442a10.587 10.587 0 016.172-2.374c2.337 0 3.944 1.242 3.944 3.469 0 2.009-1.315 3.944-3.944 7.45zm32.1.475a8.832 8.832 0 007.3-3.579c1.643-2.264 2.41-5.405 2.41-10.043S1.01-22.086-.633-24.35a8.832 8.832 0 00-7.3-3.579 8.881 8.881 0 00-7.3 3.579c-1.643 2.264-2.41 5.405-2.41 10.043s.767 7.779 2.41 10.043A8.881 8.881 0 00-7.931-.685zm0-5.186A3.276 3.276 0 01-10.6-7.3c-.877-1.242-1.242-3.36-1.242-6.975 0-3.4.329-5.734 1.242-7.049a3.185 3.185 0 012.666-1.424 3.137 3.137 0 012.669 1.428c.95 1.351 1.242 3.652 1.242 6.975 0 3.725-.365 5.807-1.242 7.049a3.225 3.225 0 01-2.666 1.425zm19.612-8.4c4.054 0 6.574-2.922 6.574-6.829s-2.52-6.829-6.574-6.829-6.572 2.921-6.572 6.829 2.52 6.829 6.574 6.829zM10.037-1.087h3.725l17.275-26.441h-3.726zm1.643-16.58c-1.716 0-2.812-1.534-2.812-3.433s1.1-3.433 2.812-3.433S14.493-23 14.493-21.1s-1.093 3.432-2.812 3.432zM22.819-7.515c0 3.908 2.52 6.829 6.574 6.829s6.574-2.922 6.574-6.829-2.52-6.829-6.574-6.829-6.574 2.921-6.574 6.829zm3.762 0c0-1.9 1.1-3.433 2.812-3.433s2.812 1.534 2.812 3.433-1.1 3.433-2.812 3.433-2.812-1.534-2.812-3.433z" transform="translate(70.076 78.815)" fill="url(#a)"/><path d="M492.638 608.208c.25 0 .5.007.747.01v5.074c-.249 0-.5-.009-.747-.009a59.4 59.4 0 1037.922 105.108l3.6 3.6a64.481 64.481 0 11-41.522-113.781z" transform="translate(-428.118 -608.208)" fill="url(#b)"/><path d="M64.427 0c-.25 0-.5.007-.747.01v5.074c.249 0 .5-.009.747-.009a59.4 59.4 0 11-37.921 105.109l-3.6 3.6A64.481 64.481 0 1064.428.003z" fill="#fff"/></svg>