<svg xmlns="http://www.w3.org/2000/svg" width="260" height="260" viewBox="0 0 260 260"><defs><style>.a,.b{fill:#e6e6e6;}.a{opacity:0.45;}</style></defs><g transform="translate(-740 -2719)"><rect class="a" width="260" height="260" rx="12" transform="translate(740 2719)"/><path class="b" d="M555.2,335.834a5.315,5.315,0,0,1-5.46-5.459c-.035-.306-.04-.693-.062-1.026a10.252,10.252,0,0,1-3.486-.665,4.714,4.714,0,0,1-2.388-2.315c-.939-2.046-.806-4.471-.806-8.439V301.5a57.009,57.009,0,0,1,.167-5.868,5.317,5.317,0,0,1,5.458-5.462A56.571,56.571,0,0,1,554.5,290h16.427c1.008,0,1.916-.007,2.744-.006,2.484,0,4.246.106,5.791.853a4.726,4.726,0,0,1,2.278,2.49,10.772,10.772,0,0,1,.593,3.343c.336.022.726.024,1.033.059a5.312,5.312,0,0,1,5.46,5.457,56.517,56.517,0,0,1,.171,5.876V324.5a57.03,57.03,0,0,1-.167,5.868,5.315,5.315,0,0,1-5.458,5.46,56.58,56.58,0,0,1-5.874.17h-17A50.7,50.7,0,0,1,555.2,335.834Zm.362-35.827a2.2,2.2,0,0,0-2.559,2.564c-.138,1.224-.148,3.046-.148,5.5V324.5c0,2.459.009,4.28.148,5.506a2.2,2.2,0,0,0,2.564,2.559c1.224.138,3.046.148,5.5.148H577.5c2.459,0,4.28-.009,5.506-.148A2.2,2.2,0,0,0,585.566,330c.138-1.224.148-3.046.148-5.5V308.072c0-2.459-.009-4.28-.148-5.506A2.2,2.2,0,0,0,583,300.007c-1.224-.138-3.046-.148-5.5-.148H561.074C558.613,299.859,556.792,299.868,555.566,300.007Zm-1.064-6.718c-2.459,0-4.28.009-5.506.146A2.208,2.208,0,0,0,546.435,296c-.138,1.226-.148,3.047-.148,5.5V317.93c0,3.965.146,6.281.507,7.069a1.018,1.018,0,0,0,.693.664,7.676,7.676,0,0,0,2.1.376c0-.514-.009-.96-.009-1.536V308.074a57.122,57.122,0,0,1,.166-5.87,5.315,5.315,0,0,1,5.459-5.46,56.584,56.584,0,0,1,5.875-.17H577.5c.574,0,1.017.007,1.53.009a8.362,8.362,0,0,0-.344-2.037,1.031,1.031,0,0,0-.653-.738c-.757-.367-3.077-.52-7.1-.52H554.5ZM579.624,327.3l-7.061-7.061-2.626,2.586.51.51.044.044a1.643,1.643,0,1,1-2.367,2.278l-1.443-1.447-.013-.009a1.669,1.669,0,0,1-.45-.449l-3.5-3.5-3.767,3.767c-.013.015-.028.03-.043.044a1.643,1.643,0,1,1-2.28-2.367l4.929-4.929a1.643,1.643,0,0,1,2.323,0l3.738,3.739,3.806-3.748a1.643,1.643,0,0,1,2.314.009l8.213,8.215.044.044a1.643,1.643,0,1,1-2.367,2.278Zm-5.41-19.232a3.286,3.286,0,1,1,3.287,3.287A3.286,3.286,0,0,1,574.214,308.072Z" transform="translate(308 2536)"/></g></svg>