<svg xmlns="http://www.w3.org/2000/svg" width="30" height="30.001"><defs><style>.b{fill:#ef2d2d}</style></defs><path fill="none" d="M0 .001h30v30H0z"/><path class="b" d="M8.248 17.757h-1.5V2.5l15-2.5v15.507h-1.5V1.771l-12 2z"/><path class="b" d="M4.124 13.633A4.124 4.124 0 110 17.757a4.129 4.129 0 014.124-4.124zm0 6.748A2.624 2.624 0 101.5 17.757a2.627 2.627 0 002.624 2.624zm13.497-8.998a4.124 4.124 0 11-4.124 4.124 4.129 4.129 0 014.124-4.124zm0 6.748a2.624 2.624 0 10-2.624-2.624 2.627 2.627 0 002.624 2.624z"/></svg>