<svg xmlns="http://www.w3.org/2000/svg" width="30.5" height="30.5"><path fill="none" d="M.5.5h30v30H.5z"/><path d="M11.929 22.78a28.947 28.947 0 01-2.2-2.079.9.9 0 01-.111-.1l-7.3-7.3A6.2 6.2 0 01.5 8.925V6.7a30.786 30.786 0 01.089-3.163A2.864 2.864 0 013.531.594 30.492 30.492 0 016.7.5h2.227a6.2 6.2 0 014.383 1.816l7.3 7.3a.607.607 0 01.049.052 30 30 0 012.126 2.251 2.866 2.866 0 010 4.161 30.858 30.858 0 01-2.174 2.3q-.025.026-.053.05h0L18.4 20.6a.919.919 0 01-.09.086 29.585 29.585 0 01-2.217 2.091 2.868 2.868 0 01-4.163 0zm-8.2-20.429a1.188 1.188 0 00-1.38 1.382c-.074.66-.08 1.641-.08 2.966v2.227a4.427 4.427 0 001.3 3.13l7.2 7.2a.929.929 0 01.108.094c.937.937 1.635 1.628 2.155 2.042s.8.508.975.508.457-.1.977-.511 1.217-1.1 2.153-2.04a.782.782 0 01.065-.061l2.141-2.163a.614.614 0 01.045-.043l.007-.006c.91-.91 1.589-1.6 2-2.108s.51-.8.511-.975-.095-.457-.508-.977-1.105-1.218-2.042-2.155l-.044-.045-7.254-7.252a4.427 4.427 0 00-3.13-1.3H6.7c-1.328.007-2.31.012-2.969.086zm1.214 4.338a1.753 1.753 0 111.753 1.763 1.757 1.757 0 01-1.751-1.763z" fill="#ef2d2d" stroke="transparent" stroke-miterlimit="10"/></svg>