<svg xmlns="http://www.w3.org/2000/svg" width="30.5" height="30.5"><path fill="none" d="M.5.5h30v30H.5z"/><path d="M22.5 19.5v-2a3 3 0 00-2.25-2.9 1 1 0 01.5-1.937A5 5 0 0124.5 17.5v2a1 1 0 01-2 0zm-6 0v-2a3 3 0 00-3-3h-8a3 3 0 00-3 3v2a1 1 0 01-2 0v-2a5 5 0 015-5h8a5 5 0 015 5v2a1 1 0 11-2 0zm-12-14a5 5 0 115 5 5 5 0 01-5-5zm2 0a3 3 0 103-3 3 3 0 00-3 3zm9.031 4.127a1 1 0 01.721-1.216 3 3 0 000-5.813 1 1 0 01.5-1.938 5 5 0 010 9.688 1 1 0 01-1.217-.721z" fill="#ef2d2d" stroke="transparent" stroke-miterlimit="10"/></svg>